mtllib materials.mtl
v -0.1806608 0.005342841 0.2520803
v -0.1806609 0.1378428 0.216577
v 0.02933913 0.1378429 0.216577
v 0.02933919 0.005342841 0.2520803
v -0.180661 0.2348396 0.1195803
v 0.02933913 0.2348396 0.1195803
v -0.2014032 0.2300341 -0.1609358
v -0.1991764 0.2244697 0.1379866
v -0.180661 0.2344661 0.09777454
v -0.180661 0.2303429 -0.1429197
v -0.180661 0.1378428 -0.2424164
v 0.02933919 0.1378429 -0.2424163
v 0.02933913 0.2303429 -0.1429197
v -0.1806608 0.005342722 -0.2779197
v 0.02933908 0.005342722 -0.2779195
v -0.1806608 -0.1271573 -0.2424163
v 0.02933913 -0.1271573 -0.2424163
v -0.1806608 -0.224154 -0.1454196
v 0.02933913 -0.2241538 -0.1454195
v -0.1806608 -0.2196573 0.1170804
v 0.02933925 -0.2196572 0.1170804
v -0.1806608 -0.1271572 0.2165771
v 0.02933919 -0.1271571 0.2165771
v -0.1806611 0.2307209 -0.1208499
v 0.02933913 0.2345016 0.09984735
v 0.02933913 0.2306443 -0.1253195
v 0.04931068 0.2299719 -0.1645693
v 0.04931068 0.259963 -0.165083
v -0.2014033 0.2600253 -0.1614496
v 0.04408729 0.234499 0.1396968
v 0.04408729 0.2644901 0.139183
v -0.1991765 0.2544608 0.1374728
v -0.03858984 -0.008128881 0.07345811
v -0.04453385 -0.007273316 0.01868233
v -0.08184475 -0.006536603 0.01950586
v -0.08511269 -0.007142782 0.07288763
v -0.03924298 -0.06390989 0.03029424
v -0.03907108 -0.05186045 -0.01732233
v -0.08556575 -0.05182588 -0.01534584
v -0.08576578 -0.06292379 0.02972376
v -0.03719068 -0.004872561 -0.03502506
v -0.04563475 -0.02324951 -0.05961853
v -0.0364567 0.03037071 -0.03395772
v -0.04849845 0.05038631 0.03360561
v -0.04808748 0.03061724 -0.03410035
v -0.03701091 0.02760923 0.04105526
v -0.08350843 0.02907264 0.03982407
v -0.07176006 0.05087936 0.0333204
v -0.03682369 0.01274908 -0.03449136
v -0.03691733 0.02017915 0.0032821
v -0.08371341 -0.003886461 -0.03559548
v -0.08334643 0.01373518 -0.03506181
v -0.08342737 0.02140391 0.002380997
v -0.08431059 0.01096499 0.05635583
v -0.03891641 -0.03601944 0.05187616
v -0.04692972 -0.002964497 -0.0584715
v -0.07134879 0.03111029 -0.0343855
v -0.0829795 0.03135681 -0.03452814
v -0.07153869 -0.0009459257 -0.06224787
v -0.07058662 -0.02062535 -0.06451988
v -0.05727613 0.006556153 -0.1202393
v -0.05826503 0.07522988 -0.1177671
v -0.05670357 -0.08210444 -0.1233168
v -0.08543926 -0.03503323 0.05130568
v -0.007012963 -0.03936684 -0.019155
v -0.1120446 -0.03534961 -0.01250407
v -0.05548793 0.06105077 -0.04265997
v -0.05492866 0.08423257 -0.005543888
v -0.03780037 0.009740233 0.05725667
vn 5.313268E-08 0.2588193 0.9659258
vn -1.730441E-07 0.7071071 0.7071066
vn 0.4410191 -0.8972751 -0.01998807
vn -4.915229E-08 0.7323883 -0.6808873
vn 2.232104E-07 0.2588187 -0.9659259
vn 4.364919E-07 -0.2588194 -0.9659258
vn 6.746871E-07 -0.7071073 -0.7071063
vn 7.663195E-07 -0.9998533 0.01712772
vn 2.975499E-07 -0.7323886 0.680887
vn 2.212232E-07 -0.2588187 0.9659259
vn -1 -4.836825E-07 3.75558E-08
vn 1 1.5499E-07 -9.040858E-08
vn 3.072781E-07 -0.9998533 0.01713386
vn 4.785657E-06 -0.9998534 0.01712773
vn -0.01449307 -0.01712645 -0.9997483
vn -0.01970432 -0.9996836 0.01563686
vn 0.9998528 0.0002939436 0.01716029
vn -0.007735179 0.01712736 0.9998235
vn -0.9999723 0.0001258031 0.007451486
vn 3.266484E-05 0.9998893 -0.01487659
vn 0.4997747 -0.8660285 0.01483347
vn 0.03980785 -0.8871498 -0.4597614
vn -0.001561128 -0.9999986 0.0005148692
vn -1.447954E-07 0.9998534 -0.01712805
vn -0.0413186 0.9989672 0.01890358
vn -0.02058355 -0.9997036 -0.01300066
vn -0.01430793 -0.9700892 -0.2423268
vn 0.9634596 -0.1273376 -0.2356499
vn 0.02377783 0.9596856 -0.2800684
vn -0.01236509 0.2987261 0.9542588
vn 0.9997572 -0.02102007 0.006612668
vn -0.9995149 0.02924899 -0.01069718
vn 0.9997003 -0.02119015 0.01225768
vn 0.9232544 -0.007594157 -0.384114
vn 0.02237468 0.5877119 -0.8087608
vn -0.9104506 0.0314493 -0.4124204
vn -0.9278566 -0.1141205 -0.3550473
vn -0.0236123 -0.8408722 -0.5407186
vn 0.9854668 0.07162175 -0.154031
vn -0.07385827 0.5957592 0.79976
vn -0.978185 -0.02349343 -0.206403
vn -0.2078075 -0.7001814 0.6830536
vn 0.9831136 0.01268577 -0.1825563
vn 0.9865602 0.02004421 -0.1621641
vn -0.9708875 -0.005359986 -0.2394759
vn -0.9711208 0.002009946 -0.2385798
vn -0.02266166 -0.611659 0.7907969
vn -0.9997003 0.02118996 -0.01225915
vn 0.008019735 0.756583 0.6538485
vn 0.02943006 0.7427492 0.6689227
vn 0.1656764 0.675359 -0.7186387
vn -0.9097496 0.00391588 -0.415139
vn 0.9228198 0.08021817 -0.3767873
vn 0.0848223 -0.3542594 -0.9312924
vn -0.5328764 -0.8210976 -0.2045524
vn 0.3420268 -0.9112687 -0.2293627
vn 0.4344427 0.6613792 0.6114222
vn -0.3173361 -0.3585685 -0.8779103
vn -0.2753075 0.7174986 0.639845
vn -0.8905553 0.435159 -0.1324686
vn 0.02377832 0.9596855 -0.2800684
vn 0.9736733 0.2203337 -0.05842344
vn 0.006096209 -0.2693717 -0.963017
vn 0.008039408 0.757113 0.6532345
vn -0.9997584 0.02101073 -0.006466248
vn 0.9995171 -0.02916879 0.01071186
vn 0.003392226 0.6728914 0.7397335
vn -0.9844638 0.1705908 0.0415911
vn -0.3600944 -0.932345 -0.03263013
vn 0.9275581 0.3455378 0.1422662
vn 0.1177094 -0.9926454 -0.02827722
vn 0.02361829 -0.8263575 -0.5626504
vn -0.879288 0.4762169 0.008374456
vn 0.8895315 0.4562759 0.02336907
vn 0.9920636 0.09938525 -0.07702158
vn -0.9442709 0.2853935 -0.1640215
vn -0.9993203 0.03563021 -0.009460894
vn 0.9993226 -0.03556237 0.009472135
vt 0.1102751 0.1539615
vt 0.1221647 0.1608028
vt 0.1116914 0.1790047
vt 0.0998017 0.1721634
vt 0.08227514 0.1416003
vt 0.09400608 0.1487104
vt 0.08312134 0.1666693
vt 0.07139041 0.1595592
vt -0.005111438 0.1652655
vt 0.02335444 0.1561222
vt 0.0201632 0.1593492
vt -0.09135849 0.08589936
vt -0.07781532 0.08483113
vt -0.07616405 0.1057661
vt -0.08970721 0.1068344
vt -0.1267161 0.1337059
vt -0.1139385 0.1287159
vt -0.1062993 0.1482771
vt -0.1190769 0.1532671
vt -0.1221647 0.1608028
vt -0.110275 0.1539615
vt -0.0998017 0.1721634
vt -0.1116914 0.1790047
vt -0.09400605 0.1487104
vt -0.08227511 0.1416004
vt -0.07139039 0.1595593
vt -0.08312131 0.1666693
vt -0.01962981 0.08991947
vt 0.005161474 0.08127905
vt 0.0120728 0.1011092
vt -0.01271848 0.1097496
vt 0.07979653 0.08498742
vt 0.0933397 0.08605565
vt 0.09168844 0.1069906
vt 0.07814527 0.1059224
vt 0.1139385 0.1287159
vt 0.1267161 0.1337059
vt 0.1190769 0.1532672
vt 0.1062993 0.1482771
vt -0.08246584 0.1404854
vt -0.06899301 0.1387415
vt -0.04737115 0.1536331
vt -0.04511602 0.1671638
vt -0.04992841 0.1800094
vt -0.06051884 0.1887278
vt -0.07399167 0.1904717
vt -0.07580955 0.1892197
vt -0.09381743 0.1768171
vt -0.09561354 0.1755801
vt -0.09786866 0.1620493
vt -0.09305628 0.1492038
vt 0.09305623 0.1492038
vt 0.09786862 0.1620494
vt 0.09561349 0.1755802
vt 0.09398811 0.1766996
vt 0.07544133 0.1894733
vt 0.07399162 0.1904717
vt 0.06051879 0.1887278
vt 0.04992837 0.1800094
vt 0.04511598 0.1671639
vt 0.04737112 0.1536331
vt 0.06899298 0.1387415
vt 0.08246581 0.1404854
vt -0.01657348 0.08885404
vt -0.01865782 0.08958049
vt -0.01174655 0.1094106
vt -0.01008433 0.1088313
vt -0.01313392 0.1120091
vt -0.02104195 0.08821483
vt 0.004073401 0.08165912
vt -0.01657415 0.08885531
vt -0.02104263 0.08821611
vt -0.1429261 0.1582675
vt -0.131649 0.1806625
vt -0.1343281 0.1820115
vt -0.1456051 0.1596165
vt -0.01429093 0.108446
vt -0.01125356 0.1052567
vt 0.009982854 0.09776241
vt 0.01423131 0.09782823
vt 0.07511176 0.1910366
vt 0.09974041 0.1731568
vt 0.1014971 0.1755882
vt 0.07686848 0.1934679
vt 0.1316518 0.1798111
vt 0.1417683 0.1576647
vt 0.1444432 0.159022
vt 0.1343267 0.1811684
vt -0.09522872 0.17431
vt -0.07104886 0.1918952
vt -0.07272528 0.1943825
vt -0.09690515 0.1767973
vt 0.02138391 0.08838037
vt 0.01345153 0.1121666
vt -0.01510059 0.1016294
vt 0.02984992 0.1659534
vt 0.02776768 0.1666019
vt 0.03095443 0.1633704
vt -0.05876873 0.128442
vt -0.05779456 0.1258072
vt -0.04647324 0.1473626
vt 0.003541803 0.0817092
vt 0.01299575 0.1021979
vt 0.008746925 0.1021494
vt -0.006132607 0.08094047
vt -0.01118029 0.1014201
vt -0.01304393 0.1007706
vt -0.01236716 0.1115346
vt -0.003986982 0.08867455
vt 0.02422282 0.0985797
vt 0.001501715 0.0943305
vt -0.003845442 0.09566181
vt -0.005056133 0.09213088
vt -0.0001579276 0.08998282
vt -0.0276349 0.1128543
vt -0.03207222 0.1149604
vt -0.03387866 0.1106717
vt -0.02968719 0.1086777
vt 0.01629548 0.180876
vt 0.0154547 0.1858299
vt 0.01258665 0.1844469
vt -0.02943762 0.08431539
vt -0.03609704 0.08171607
vt -0.02919661 0.08317719
vt 0.1102859 0.1710753
vt 0.1076375 0.1708566
vt 0.1101388 0.1669323
vt 0.1115089 0.1690958
vt 0.07003701 0.1705282
vt 0.06898429 0.1691136
vt 0.07250669 0.1675601
vt 0.07602906 0.1660067
vt -0.07639413 0.1621517
vt -0.06767324 0.1686137
vt -0.06872301 0.1700304
vt -0.07223512 0.1685229
vt -0.07607068 0.1645835
vt 0.0687029 0.1675217
vt 0.07061774 0.1589254
vt 0.07399134 0.1599532
vt -0.01966427 0.1741361
vt -0.01978881 0.1758951
vt -0.01991337 0.177654
vt -0.02220902 0.1740556
vt -0.1010687 0.111443
vt -0.1013051 0.1103039
vt -0.1017778 0.1080256
vt -0.1020142 0.1068864
vt -0.09721173 0.1096149
vt -0.104828 0.1633423
vt -0.1033709 0.1623491
vt -0.1019138 0.161356
vt -0.1004578 0.1639157
vt -0.1082528 0.1429601
vt -0.1050783 0.1388322
vt -0.1051964 0.1448443
vt -0.06483091 0.1352797
vt -0.062658 0.1393949
vt -0.06913547 0.1394785
vt 0.04515921 0.1612884
vt 0.04610578 0.1630909
vt 0.04083833 0.1666099
vt 0.08995901 0.1690152
vt 0.09158238 0.1671167
vt 0.0989119 0.1731906
vt -0.09195898 0.1583032
vt -0.09030934 0.1572023
vt -0.0817084 0.157767
vt 0.08359808 0.06510305
vt 0.08348639 0.06765698
vt 0.07499219 0.06558637
vt 0.02792225 0.1748552
vt 0.0247441 0.1665724
vt 0.03277936 0.1700182
vt 0.03628888 0.1798042
vt 0.03354178 0.1735046
vt 0.03901088 0.170308
vt -0.08958969 0.1654494
vt -0.09500591 0.1696799
vt -0.09287054 0.1604033
vt -0.08194457 0.1608688
vt -0.08887959 0.1664015
vt -0.09219648 0.161379
vt 0.09890099 0.1088465
vt 0.09543564 0.1081915
vt 0.09629992 0.1036188
vt 0.09976529 0.1042738
vt -0.07399156 0.1599531
vt -0.07061794 0.1589253
vt -0.06870313 0.1675216
vt 0.07329562 0.1500567
vt 0.06923847 0.1482856
vt 0.07171825 0.1443477
vt 0.07429303 0.1437711
vt 0.0777647 0.146283
vt 0.07584833 0.1494862
vt -0.09339573 0.07518784
vt -0.08902644 0.07576805
vt -0.08880277 0.07825588
vt -0.1005156 0.1601437
vt -0.1022816 0.1610463
vt -0.1036855 0.1584576
vt -0.0205542 0.1645502
vt -0.02309831 0.1644513
vt -0.02292348 0.162423
vt -0.1027182 0.1726045
vt -0.09851875 0.1698454
vt -0.09790944 0.1732367
vt -0.06382431 0.03649046
vt -0.06754556 0.03926481
vt -0.06950171 0.03681935
vt -0.01577133 0.1597467
vt -0.01127527 0.1577691
vt -0.01485194 0.1630673
vt 0.09030394 0.1125275
vt 0.09734803 0.1178136
vt 0.09254855 0.1185129
vt -0.1086557 0.1519338
vt -0.1130132 0.154785
vt -0.1113105 0.1502729
vt 0.06676289 0.1722308
vt 0.05932355 0.1675171
vt 0.06500612 0.1677395
vt -0.06056315 0.1944324
vt -0.05366698 0.1959135
vt -0.05443415 0.1993158
vt -0.03561502 0.0794396
vt -0.02847359 0.07976256
vt -0.0287146 0.08090075
vt 0.09783928 0.1232616
vt 0.09357808 0.1297139
vt 0.09184019 0.1269713
vt -0.1116935 0.1706243
vt -0.1148007 0.1715667
vt -0.1129061 0.1686384
vt 0.07696195 0.149009
vt 0.08049424 0.1530814
vt 0.07572223 0.1509781
vt -0.06894272 0.1691338
vt -0.06999519 0.1705486
vt -0.07596119 0.1661052
vt -0.07245194 0.1676195
vt 0.06876032 0.170046
vt 0.06771042 0.1686294
vt 0.07643074 0.1621666
vt 0.07612101 0.1645599
vt 0.07228582 0.1684996
vt 0.08247472 0.1586928
vt 0.080457 0.1573688
vt 0.07843928 0.1560448
vt 0.08095805 0.1521317
vt 0.08300914 0.1534776
vt 0.08506022 0.1548234
vt -0.04748686 0.1847525
vt -0.0523564 0.1821536
vt -0.05397939 0.1781878
vt -0.02261862 0.03321829
vt -0.02724787 0.03589722
vt -0.03228156 0.03816188
vt 0.1131673 0.07937146
vt 0.1152191 0.08329416
vt 0.1139549 0.08857086
vt -0.004616675 0.1209979
vt 0.0002053094 0.1185099
vt 0.005569594 0.1172493
vt -0.06259316 0.145908
vt -0.06734885 0.1478803
vt -0.06907065 0.1459907
vt -0.03413179 0.1996565
vt -0.04127283 0.1993251
vt -0.04099191 0.1967796
vt 0.1168025 0.03242582
vt 0.1193747 0.03309404
vt 0.1172482 0.03991917
vt 0.07678281 0.1535803
vt 0.07550942 0.1586375
vt 0.07113896 0.1588659
vt -0.0681453 0.1931197
vt -0.07252004 0.192998
vt -0.07388338 0.1877823
vt -0.07142726 0.1694016
vt -0.07494993 0.1679188
vt -0.07529044 0.1654893
vt 0.07536072 0.1654893
vt 0.07503413 0.1678805
vt 0.07149783 0.1694019
o group701238410
g mesh701238410
usemtl mat24
f 4/4/1 3/3/1 2/2/1 1/1/1
f 3/8/2 6/7/2 5/6/2 2/5/2
f 9/11/3 8/10/3 7/9/3
f 13/15/4 12/14/4 11/13/4 10/12/4
f 12/19/5 15/18/5 14/17/5 11/16/5
f 15/23/6 17/22/6 16/21/6 14/20/6
f 17/27/7 19/26/7 18/25/7 16/24/7
f 19/31/8 21/30/8 20/29/8 18/28/8
f 21/35/9 23/34/9 22/33/9 20/32/9
f 23/39/10 4/38/10 1/37/10 22/36/10
f 1/51/11 2/50/11 5/49/11 9/48/11 24/47/11 10/46/11 11/45/11 14/44/11 16/43/11 18/42/11 20/41/11 22/40/11
f 23/63/12 21/62/12 19/61/12 17/60/12 15/59/12 12/58/12 13/57/12 26/56/12 25/55/12 6/54/12 3/53/12 4/52/12
f 7/69/13 27/68/13 26/67/13 13/66/13 10/65/13 24/64/13
f 7/72/14 24/71/14 9/70/14
f 29/76/15 28/75/15 27/74/15 7/73/15
f 30/80/16 25/79/16 26/78/16 27/77/16
f 28/84/17 31/83/17 30/82/17 27/81/17
f 31/88/18 32/87/18 8/86/18 30/85/18
f 32/92/19 29/91/19 7/90/19 8/89/19
f 31/95/20 28/94/20 29/93/20
f 8/98/21 9/97/21 5/96/21
f 30/101/22 8/100/22 5/99/22
f 25/104/23 30/103/23 5/102/23
f 6/107/24 25/106/24 5/105/24
f 29/110/25 32/109/25 31/108/25
o group837923450
g mesh837923450
usemtl mat7
f 36/114/26 35/113/26 34/112/26 33/111/26
f 64/193/49 55/192/49 34/191/49
f 34/196/50 35/195/50 64/194/50
usemtl mat13
f 40/118/27 39/117/27 38/116/27 37/115/27
f 42/121/28 41/120/28 38/119/28
f 45/124/29 44/123/29 43/122/29
f 48/128/30 47/127/30 46/126/30 44/125/30
f 46/132/31 50/131/31 49/130/31 43/129/31
f 54/137/32 53/136/32 52/135/32 51/134/32 36/133/32
f 55/140/33 37/139/33 41/138/33
f 56/144/34 43/143/34 49/142/34 41/141/34
f 56/149/35 58/148/35 57/147/35 45/146/35 43/145/35
f 59/153/36 51/152/36 52/151/36 58/150/36
f 60/156/37 39/155/37 51/154/37
f 60/159/38 38/158/38 39/157/38
f 61/162/39 56/161/39 42/160/39
f 62/165/40 59/164/40 56/163/40
f 63/168/41 60/167/41 59/166/41
f 63/171/42 42/170/42 60/169/42
f 42/174/43 63/173/43 61/172/43
f 56/177/44 61/176/44 62/175/44
f 59/180/45 62/179/45 61/178/45
f 59/183/46 61/182/46 63/181/46
f 64/187/47 40/186/47 37/185/47 55/184/47
f 51/190/48 40/189/48 64/188/48
f 56/199/51 59/198/51 58/197/51
f 51/202/52 59/201/52 60/200/52
f 42/205/53 56/204/53 41/203/53
f 65/208/54 38/207/54 41/206/54
f 66/211/55 39/210/55 40/209/55
f 65/214/56 37/213/56 38/212/56
f 65/217/57 41/216/57 37/215/57
f 66/220/58 51/219/58 39/218/58
f 66/223/59 40/222/59 51/221/59
f 67/226/60 57/225/60 48/224/60
f 57/229/61 58/228/61 48/227/61
f 45/232/62 67/231/62 44/230/62
f 57/235/63 67/234/63 45/233/63
f 44/238/64 68/237/64 48/236/64
f 53/242/65 47/241/65 58/240/65 52/239/65
f 50/247/66 69/246/66 33/245/66 41/244/66 49/243/66
f 47/253/67 54/252/67 36/251/67 33/250/67 69/249/67 46/248/67
f 64/256/68 35/255/68 51/254/68
f 51/259/69 35/258/69 36/257/69
f 41/262/70 34/261/70 55/260/70
f 33/265/71 34/264/71 41/263/71
f 60/268/72 42/267/72 38/266/72
f 47/271/73 48/270/73 58/269/73
f 43/274/74 44/273/74 46/272/74
f 67/277/75 68/276/75 44/275/75
f 48/280/76 68/279/76 67/278/76
usemtl mat23
f 54/283/77 47/282/77 53/281/77
f 50/286/78 46/285/78 69/284/78
